<svg width="90" height="90" viewBox="0 0 90 90" fill="none" xmlns="http://www.w3.org/2000/svg">
<path fill-rule="evenodd" clip-rule="evenodd" d="M40.8325 57.8405C43.0485 57.912 45.05 60.8427 50.9115 60.8427C61.9198 60.9142 69.4969 52.4793 71.8559 41.3995C80.0763 3.01354 24.1057 -0.0601988 18.3871 31.535C17.0289 38.9691 19.2449 47.547 25.0349 50.3348C29.4668 52.4793 29.7528 46.3318 28.3946 43.687C22.3901 31.9639 29.6098 21.3845 39.0455 18.3822C47.9093 15.5229 54.1997 17.8819 58.989 22.8141C65.1365 29.1761 62.3487 46.4748 55.0575 51.9789C52.4841 53.909 47.7663 54.3378 45.3359 52.0504C40.3321 47.4041 48.0522 37.5395 46.9085 30.3198C45.7648 23.1716 34.4706 24.2438 33.8987 34.7517C33.6128 40.1129 35.1854 41.6855 33.9702 47.0466C32.0402 55.6245 26.1786 73.1377 30.3246 80C36.4006 77.1407 39.4029 59.985 40.8325 57.8405Z" fill="#D50012"/>
</svg>
