<svg width="90" height="90" viewBox="0 0 90 90" fill="none" xmlns="http://www.w3.org/2000/svg">
<path d="M10 66.4003C17.4009 66.8168 23.8727 65.0867 30.1844 60.5051C23.8087 59.4158 19.3873 56.5003 16.9844 50.477C18.8427 50.2207 20.4767 50.7013 22.399 49.9324C16.1194 47.1771 12.0505 43.0441 11.8903 35.8994C13.8767 36.0596 15.3825 37.3732 17.7534 37.181C11.9864 31.5422 10.2243 25.3908 13.8446 17.9257C19.8679 24.8461 26.9164 29.5558 35.5348 31.7665C36.0154 31.8946 36.4639 32.0228 36.9445 32.1189C39.1552 32.6315 41.7824 33.7208 43.128 33.5606C45.4348 33.2723 43.128 30.6131 43.7047 27.1529C45.5309 16.3879 57.3852 11.486 66.1638 17.7976C68.7269 19.6558 70.7453 19.6238 73.2764 18.5024C74.59 17.9257 75.9356 17.3491 77.5055 16.6762C77.1531 19.752 74.7822 21.45 72.8919 23.7247C75.0385 24.2053 76.7686 23.5966 78.755 22.9558C78.0822 25.1665 76.4162 26.416 74.9103 27.6335C73.3404 28.883 72.7317 30.1966 72.6676 32.247C71.7065 63.2925 36.4319 87.2895 12.3068 68.1944C9.96798 66.3362 12.2427 68.1944 10 66.4003Z" fill="#00A6DE"/>
</svg>
